<svg width="18" height="15" viewBox="0 0 18 15" fill="none" xmlns="http://www.w3.org/2000/svg">
<path d="M13.2502 1.1846V6.81956C13.2502 7.47359 12.72 8.00383 12.0659 8.00383H2.8593C2.54528 8.00383 2.24407 8.12863 2.02179 8.35057L0.67865 9.6937C0.428035 9.94432 0 9.7669 0 9.41273V1.18426C0 0.530237 0.530239 0 1.18427 0H12.0659C12.72 0 13.2502 0.530237 13.2502 1.18426V1.1846Z" fill="#93EAAD"/>
<path d="M17.62 6.09V11.725C17.62 12.379 17.0897 12.9092 16.4357 12.9092H7.22906C6.91503 12.9092 6.61382 13.034 6.39154 13.256L5.0484 14.5991C4.79779 14.8497 4.36975 14.6723 4.36975 14.3181V6.08966C4.36975 5.43563 4.89999 4.9054 5.55402 4.9054H16.4357C17.0897 4.9054 17.62 5.43563 17.62 6.08966V6.09Z" fill="#11AC3F"/>
</svg>
