<svg xmlns="http://www.w3.org/2000/svg" width="442" height="171" fill="none"><path d="M 45.305 40.711 L 44.5 45.28 L 49.271 45.28 L 48.12 51.84 C 45.745 51.882 43.757 52.385 42.177 53.444 C 40.408 54.628 39.299 56.367 38.807 58.652 C 38.431 60.769 38.734 62.414 39.697 63.64 C 40.701 64.866 42.25 65.463 44.374 65.411 C 46.237 65.411 47.827 64.772 49.104 63.504 C 50.317 62.361 51.092 60.842 51.427 58.935 L 51.877 56.357 L 58.804 56.357 C 60.446 56.357 61.116 57.122 60.823 58.557 C 60.551 59.867 59.379 60.548 57.381 60.59 L 57.579 64.992 C 61.964 64.782 64.538 62.665 65.333 58.641 C 65.793 56.483 65.5 54.795 64.444 53.611 C 63.429 52.427 61.796 51.84 59.599 51.84 L 52.672 51.84 L 53.823 45.28 L 60.509 45.238 L 61.315 40.67 L 54.639 40.67 L 55.466 35.975 L 50.903 35.975 L 50.066 40.711 L 45.295 40.711 Z M 46.896 58.777 C 46.666 60.087 45.985 60.81 44.97 60.852 C 44.29 60.894 43.819 60.685 43.547 60.297 C 43.233 59.92 43.15 59.406 43.275 58.736 C 43.621 57.038 44.929 56.283 47.335 56.325 L 46.906 58.777 Z M 70.91 52.427 L 66.348 52.427 L 67.886 43.667 L 72.448 43.667 Z M 94.224 42.398 L 90.739 37.494 L 94.757 34.571 L 98.21 39.433 Z M 98.242 52.427 L 85.267 52.427 L 86.114 47.858 L 92.277 47.858 L 106.016 34.864 L 109.019 37.746 L 98.168 47.816 L 109.365 47.816 L 108.549 52.427 L 104.75 52.427 C 103.944 52.427 103.254 52.762 102.72 53.402 L 98.671 58.18 C 97.865 59.155 97.426 60.003 97.3 60.674 C 97.017 62.277 98.127 63.168 100.586 63.336 L 99.068 67.863 C 95.72 67.444 93.68 66.092 92.978 63.797 C 92.685 62.822 92.654 61.806 92.842 60.747 C 93.114 59.186 93.899 57.614 95.186 56.053 L 97.876 52.752 L 98.231 52.417 Z M 129.162 59.197 L 133.254 35.964 L 137.941 35.964 L 133.892 58.977 C 133.704 60.035 133.955 60.538 134.551 60.538 C 135.053 60.538 135.943 60.286 137.188 59.731 C 141.457 57.824 146.061 55.372 151.126 52.333 L 152.434 56.692 C 142.713 62.445 136.257 65.327 133.128 65.327 C 129.79 65.327 128.461 63.294 129.183 59.197 Z M 186.933 42.786 C 187.153 41.518 186.504 40.879 184.987 40.879 L 172.566 40.879 L 173.456 35.849 L 186.975 35.849 C 188.712 35.849 190.02 36.31 191.014 37.159 C 191.956 38.05 192.269 39.36 191.977 41.047 L 191.725 42.44 C 191.485 43.792 191.213 44.893 190.899 45.699 C 190.26 47.439 188.461 49.723 185.499 52.637 L 193.431 61.607 L 189.518 65.327 L 181.722 56.105 C 178.175 59.238 173.906 62.581 168.977 66.134 L 166.581 62.204 C 175.077 56.2 181.146 51.243 184.746 47.313 C 185.74 46.213 186.347 45.196 186.64 44.222 C 186.724 43.97 186.807 43.499 186.933 42.786 Z M 233.183 52.941 L 214.212 52.941 L 214.945 48.749 L 233.915 48.749 Z M 241.125 39.988 L 210.288 39.946 L 211.021 35.797 L 224.247 35.797 L 224.979 31.647 L 229.709 31.647 L 228.977 35.797 L 241.857 35.797 Z M 217.215 55.089 C 214.809 55.089 213.365 56.315 212.946 58.725 L 212.015 64.017 C 211.575 66.511 212.538 67.737 214.903 67.737 L 226.947 67.737 C 228.045 67.737 228.987 67.444 229.761 66.846 C 230.546 66.207 231.038 65.369 231.226 64.31 L 232.252 58.515 C 232.44 57.457 232.21 56.608 231.634 56.021 C 231.069 55.382 230.232 55.089 229.134 55.089 L 217.226 55.089 Z M 226.8 63.262 L 216.744 63.262 L 217.383 59.668 L 227.438 59.668 Z M 234.282 46.674 L 215.311 46.674 L 216.043 42.482 L 235.014 42.482 Z M 254.069 58.39 C 252.991 57.331 252.646 55.424 253.127 52.72 L 254.927 42.482 L 259.531 42.482 L 257.763 52.553 C 257.449 54.324 258.223 55.214 260.085 55.214 L 263.089 55.214 L 261.938 59.825 L 259.238 59.825 C 256.748 59.825 255.021 59.322 254.079 58.39 Z M 278.167 56.367 L 273.521 56.367 L 275.656 44.222 L 280.302 44.222 Z M 299.649 51.243 L 294.961 51.243 L 296.583 42.021 C 297.19 38.553 299.314 36.824 302.987 36.824 L 318.149 36.866 C 321.948 36.866 323.58 38.689 322.921 42.409 C 322.282 46.045 321.822 48.414 321.613 49.598 C 320.901 53.15 319.478 55.99 317.281 58.096 C 314.56 60.842 309.977 63.346 303.489 65.631 L 302.307 61.062 C 306.451 59.584 309.443 58.233 311.285 57.08 C 314.424 55.089 316.297 52.595 316.925 49.503 C 317.396 47.303 317.825 45.102 318.128 42.902 C 318.285 42.011 317.856 41.55 316.935 41.55 L 302.569 41.55 C 301.763 41.55 301.271 41.927 301.135 42.734 L 299.639 51.232 Z M 338.721 53.192 L 335.258 50.572 C 339.778 45.071 343.409 39.527 346.067 34.026 L 350.399 35.336 C 349.405 37.369 348.39 39.307 347.291 41.256 L 366.973 41.256 L 366.157 45.909 L 357.619 45.909 L 356.206 53.905 C 355.599 57.331 354.27 60.077 352.219 62.152 C 350.42 63.975 347.73 65.578 344.11 66.93 L 342.634 62.822 C 345.25 61.89 347.155 60.873 348.463 59.689 C 350.074 58.211 351.089 56.304 351.508 53.936 L 352.92 45.899 L 344.298 45.899 C 342.75 48.183 340.887 50.635 338.711 53.171 Z M 419.491 89.45 L 391.867 89.45 L 402.749 27.675 C 402.937 26.628 402.236 25.632 401.19 25.454 C 400.144 25.276 399.15 25.967 398.972 27.015 L 387.974 89.46 L 287.679 89.46 C 282.248 89.46 277.079 93.872 276.116 99.3 L 275.091 105.137 L 44.395 105.137 C 40.325 105.137 36.233 106.709 32.874 109.57 L 6.945 131.639 C 5.94 132.498 4.957 132.446 4.423 132.142 C 3.816 131.796 3.785 131.146 3.869 130.664 L 7.96 107.401 C 8.148 106.353 7.447 105.357 6.401 105.179 C 5.354 105.001 4.36 105.692 4.182 106.74 L 0.091 130.004 C -0.307 132.299 0.614 134.395 2.519 135.485 C 3.356 135.967 4.287 136.197 5.239 136.197 C 6.694 136.197 8.18 135.642 9.435 134.573 L 35.365 112.504 C 37.991 110.272 41.277 108.993 44.395 108.993 L 274.41 108.993 L 267.871 146.142 C 266.918 151.581 270.539 155.982 275.97 155.982 L 393.897 155.982 C 396.502 155.982 398.825 157.019 400.342 158.864 L 409.519 170.024 C 411.235 172.109 415.044 170.632 415.567 167.687 L 427.611 99.311 C 428.563 93.872 424.943 89.471 419.512 89.471 Z M 304.933 128.568 L 299.681 124.503 C 296.761 127.971 293.224 131.178 289.018 134.112 L 287.061 131.178 C 291.362 128.107 294.679 125.205 297.044 122.459 L 291.027 117.702 L 293.57 114.893 L 299.45 119.347 C 301.271 116.706 302.736 113.793 303.897 110.597 L 307.288 111.393 C 305.959 115.029 304.243 118.362 302.098 121.369 L 307.549 125.435 L 304.954 128.568 Z M 341.735 123.214 L 320.064 123.214 L 320.671 119.745 L 342.331 119.776 L 341.724 123.214 Z M 374.193 120.185 L 372.791 128.149 C 372.435 130.193 371.567 131.712 370.186 132.676 C 369.014 133.504 367.35 133.965 365.215 134.133 L 364.943 130.434 C 366.147 130.371 367.026 130.235 367.559 130.004 C 368.48 129.637 369.024 128.977 369.202 127.992 L 370.531 120.458 C 370.751 119.2 370.144 118.54 368.689 118.54 L 364.169 118.54 C 362.516 124.712 359.492 130.13 355.055 134.887 L 352.198 132.414 C 356.51 127.793 359.303 123.172 360.475 118.54 L 355.233 118.54 L 355.871 114.904 L 361.543 114.904 C 361.94 113.185 362.233 111.571 362.463 110.052 L 366.115 110.083 C 365.927 111.173 365.571 112.797 365.132 114.904 L 368.993 114.904 C 371.002 114.904 372.456 115.27 373.293 115.962 C 374.235 116.821 374.549 118.205 374.193 120.185 Z M 407.698 123.214 L 386.028 123.214 L 386.635 119.745 L 408.295 119.776 L 407.688 123.214 Z M 16.906 27.005 L 19.711 11.097 C 20.788 4.978 26.648 0 32.77 0 L 48.654 0 C 49.71 0 50.569 0.859 50.569 1.918 C 50.569 2.976 49.71 3.835 48.654 3.835 L 32.77 3.835 C 28.427 3.835 24.262 7.388 23.488 11.758 L 20.684 27.665 C 20.516 28.598 19.711 29.258 18.8 29.258 C 18.685 29.258 18.581 29.258 18.466 29.226 C 17.419 29.038 16.729 28.042 16.906 27.005 Z M 441.905 88.318 L 440.618 95.632 C 440.45 96.565 439.644 97.225 438.734 97.225 C 438.619 97.225 438.514 97.225 438.399 97.194 C 437.353 97.005 436.662 96.01 436.84 94.972 L 438.127 87.658 C 438.232 87.05 438.127 86.495 437.792 86.107 C 437.478 85.73 437.008 85.531 436.422 85.531 L 429.118 85.531 C 428.061 85.531 427.203 84.671 427.203 83.613 C 427.203 82.555 428.061 81.695 429.118 81.695 L 436.422 81.695 C 438.148 81.695 439.686 82.387 440.733 83.644 C 441.779 84.902 442.208 86.61 441.905 88.329 Z" fill="rgb(7,194,63)"></path></svg>